<svg xmlns="http://www.w3.org/2000/svg" width="24" height="24" viewBox="0 0 24 24">
  <g fill="none" fill-rule="evenodd" transform="translate(2 1)">
    <path fill="#7DBB65" d="M12,7 L15,7 L15,10 L17,10 L17,13 L19,13 L19,17 L18,17 L18,18 L16,18 L16,19 L15,19 L15,20 L14,20 L14,21 L8,21 L8,20 L6,20 L6,19 L5,19 L5,18 L3,18 L3,17 L2,17 L2,13 L4,13 L4,10 L6,10 L6,7 L10,7 L10,6 L12,6 L12,7 Z M10,5 L10,2 L11,2 L11,5 L10,5 Z M9,2 L9,1 L10,1 L10,2 L9,2 Z M8,1 L8,0 L9,0 L9,1 L8,1 Z"/>
    <path fill="#258960" d="M13,7 L13,6 L15,6 L15,7 L14,7 L14,8 L13,8 L13,7 Z M7,7 L6,7 L6,6 L8,6 L8,7 L8,8 L7,8 L7,7 Z M12,20 L9,20 L8,20 L8,19 L9,19 L12,19 L13,19 L13,20 L12,20 Z M9,22 L12,22 L12,23 L9,23 L9,22 Z M6,11 L9,11 L9,12 L6,12 L6,11 Z M12,11 L15,11 L15,12 L12,12 L12,11 Z M7,21 L9,21 L9,22 L7,22 L7,21 Z M6,20 L7,20 L7,21 L6,21 L6,20 Z M14,20 L15,20 L15,21 L14,21 L14,20 Z M15,19 L16,19 L16,20 L15,20 L15,19 Z M18,17 L19,17 L19,18 L18,18 L18,17 Z M19,16 L20,16 L20,17 L19,17 L19,16 Z M20,15 L21,15 L21,16 L20,16 L20,15 Z M5,19 L6,19 L6,20 L5,20 L5,19 Z M6,17 L7,17 L7,18 L6,18 L6,17 Z M5,16 L6,16 L6,17 L5,17 L5,16 Z M7,18 L8,18 L8,19 L7,19 L7,18 Z M13,18 L14,18 L14,19 L13,19 L13,18 Z M9,9 L10,9 L10,11 L9,11 L9,9 Z M3,10 L4,10 L4,13 L3,13 L3,10 Z M17,10 L18,10 L18,13 L17,13 L17,10 Z M4,8 L5,8 L5,10 L4,10 L4,8 Z M16,8 L17,8 L17,10 L16,10 L16,8 Z M11,9 L12,9 L12,11 L11,11 L11,9 Z M14,17 L15,17 L15,18 L14,18 L14,17 Z M15,16 L16,16 L16,17 L15,17 L15,16 Z M9,12 L10,12 L10,13 L9,13 L9,12 Z M5,12 L6,12 L6,13 L5,13 L5,12 Z M5,7 L6,7 L6,8 L5,8 L5,7 Z M8,5 L9,5 L9,6 L8,6 L8,5 Z M9,4 L10,4 L10,5 L9,5 L9,4 Z M8,2 L9,2 L9,3 L8,3 L8,2 Z M11,4 L12,4 L12,5 L11,5 L11,4 Z M12,5 L13,5 L13,6 L12,6 L12,5 Z M15,7 L16,7 L16,8 L15,8 L15,7 Z M11,12 L12,12 L12,13 L11,13 L11,12 Z M15,12 L16,12 L16,13 L15,13 L15,12 Z M18,13 L19,13 L19,14 L18,14 L18,13 Z M19,14 L20,14 L20,15 L19,15 L19,14 Z M2,17 L3,17 L3,18 L2,18 L2,17 Z M1,16 L2,16 L2,17 L1,17 L1,16 Z M0,15 L1,15 L1,16 L0,16 L0,15 Z M1,14 L2,14 L2,15 L1,15 L1,14 Z M2,13 L3,13 L3,14 L2,14 L2,13 Z M12,21 L14,21 L14,22 L12,22 L12,21 Z M16,18 L18,18 L18,19 L16,19 L16,18 Z M12,8 L13,8 L13,9 L12,9 L12,8 Z M8,8 L9,8 L9,9 L8,9 L8,8 Z M3,18 L5,18 L5,19 L3,19 L3,18 Z"/>
    <path fill="#3AA076" d="M11,16 L12,16 L12,17 L11,17 L11,18 L10,18 L10,17 L9,17 L9,16 L10,16 L11,16 Z M17,11 L17,12 L15,12 L15,11 L16,11 L16,10 L17,10 L17,11 Z M5,11 L6,11 L6,12 L5,12 L4,12 L4,11 L4,10 L5,10 L5,11 Z M6,9 L6,10 L5,10 L5,9 L5,8 L6,8 L6,7 L7,7 L7,8 L7,9 L6,9 Z M11,6 L10,6 L10,7 L9,7 L8,7 L8,6 L9,6 L9,5 L10,5 L11,5 L12,5 L12,6 L11,6 Z M9,3 L9,2 L10,2 L10,3 L10,4 L9,4 L9,3 Z M14,8 L14,7 L15,7 L15,8 L16,8 L16,9 L16,10 L15,10 L15,9 L14,9 L14,8 Z M9,21 L12,21 L12,22 L9,22 L9,21 Z M7,20 L8,20 L8,21 L7,21 L7,20 Z M6,19 L7,19 L7,20 L6,20 L6,19 Z M2,16 L3,16 L3,17 L2,17 L2,16 Z M4,16 L5,16 L5,17 L4,17 L4,16 Z M5,15 L6,15 L6,16 L5,16 L5,15 Z M3,15 L4,15 L4,16 L3,16 L3,15 Z M1,15 L2,15 L2,16 L1,16 L1,15 Z M2,14 L3,14 L3,15 L2,15 L2,14 Z M3,13 L4,13 L4,14 L3,14 L3,13 Z M16,16 L17,16 L17,17 L16,17 L16,16 Z M15,15 L16,15 L16,16 L15,16 L15,15 Z M18,16 L19,16 L19,17 L18,17 L18,16 Z M17,15 L18,15 L18,16 L17,16 L17,15 Z M19,15 L20,15 L20,16 L19,16 L19,15 Z M18,14 L19,14 L19,15 L18,15 L18,14 Z M17,13 L18,13 L18,14 L17,14 L17,13 Z M11,8 L12,8 L12,9 L11,9 L11,8 Z M9,8 L10,8 L10,9 L9,9 L9,8 Z M8,1 L9,1 L9,2 L8,2 L8,1 Z M11,3 L12,3 L12,4 L11,4 L11,3 Z M12,6 L13,6 L13,7 L12,7 L12,6 Z"/>
    <path fill="#ECBB3E" d="M6,14 L5,14 L5,13 L6,13 L6,12 L7,12 L8,12 L9,12 L9,13 L9,14 L8,14 L8,13 L7,13 L7,14 L8,14 L8,15 L7,15 L6,15 L6,14 Z M15,14 L15,15 L14,15 L13,15 L13,14 L14,14 L14,13 L13,13 L13,14 L12,14 L12,13 L12,12 L13,12 L14,12 L15,12 L15,13 L16,13 L16,14 L15,14 Z"/>
    <rect width="1" height="1" x="13" y="13" fill="#471717"/>
    <rect width="1" height="1" x="7" y="13" fill="#471717"/>
  </g>
</svg>
