<svg xmlns="http://www.w3.org/2000/svg" width="24" height="24" viewBox="0 0 24 24">
  <g fill="none" fill-rule="evenodd" transform="translate(2)">
    <path fill="#CFD8DC" d="M7,23 L5,23 L5,22 L4,22 L4,21 L3,21 L3,20 L2,20 L2,19 L1,19 L1,17 L1,15 L2,15 L2,13 L4,13 L4,15 L4,17 L5,17 L5,18 L6,18 L9,18 L9,16 L11,16 L11,18 L14,18 L14,17 L15,17 L15,16 L16,16 L16,15 L15,15 L15,13 L17,13 L17,15 L18,15 L18,17 L18,19 L17,19 L17,20 L16,20 L16,21 L15,21 L15,22 L14,22 L14,23 L12,23 L12,24 L7,24 L7,23 Z"/>
    <path fill="#FFB840" d="M5,17 L4,17 L4,16 L3,16 L3,11 L16,11 L16,16 L15,16 L15,17 L14,17 L14,18 L5,18 L5,17 Z"/>
    <path fill="#CFD8DC" d="M18,9 L19,9 L19,11 L18,11 L18,12 L16,12 L16,11 L15,11 L15,12 L13,12 L13,11 L12,11 L12,12 L10,12 L10,11 L9,11 L9,12 L7,12 L7,11 L6,11 L6,12 L4,12 L4,11 L3,11 L3,12 L1,12 L1,11 L0,11 L0,9 L1,9 L1,8 L3,8 L3,9 L4,9 L4,8 L6,8 L6,9 L7,9 L7,8 L9,8 L9,9 L10,9 L10,8 L12,8 L12,9 L13,9 L13,8 L15,8 L15,9 L16,9 L16,8 L18,8 L18,9 Z"/>
    <path fill="#C31313" d="M8,1 L8,0 L13,0 L13,2 L15,2 L15,3 L16,3 L16,4 L16,5 L17,5 L17,6 L18,6 L18,9 L4,9 L2,9 L2,6 L3,6 L3,4 L4,4 L4,3 L5,3 L5,2 L6,2 L6,1 L8,1 Z"/>
    <path fill="#911B1B" d="M14,5 L13,5 L13,4 L14,4 L15,4 L15,5 L14,5 Z M7,1 L8,1 L8,2 L7,2 L7,3 L6,3 L6,4 L5,4 L5,6 L5,9 L2,9 L2,6 L3,6 L3,4 L4,4 L4,3 L5,3 L5,2 L6,2 L6,1 L7,1 Z M8,0 L9,0 L9,1 L8,1 L8,0 Z"/>
    <path fill="#CFD8DC" d="M16,6 L15,6 L15,4 L16,4 L16,3 L17,3 L17,2 L19,2 L19,3 L20,3 L20,4 L21,4 L21,6 L20,6 L20,7 L19,7 L19,8 L17,8 L17,7 L16,7 L16,6 Z"/>
    <path fill="#A47627" d="M11,17 L11,19 L9,19 L9,17 L9,16 L11,16 L11,17 Z"/>
    <path fill="#D69932" d="M11,17 L11,19 L10,19 L10,17 L10,16 L11,16 L11,17 Z"/>
    <rect width="3" height="1" x="5" y="13" fill="#0D0D0D"/>
    <rect width="3" height="2" x="5" y="14" fill="#FFF"/>
    <rect width="3" height="1" x="12" y="13" fill="#0D0D0D"/>
    <rect width="3" height="2" x="12" y="14" fill="#FFF"/>
    <rect width="1" height="1" x="6" y="14" fill="#7CAEFF"/>
    <rect width="1" height="2" x="6" y="14" fill="#4C7CCA"/>
    <rect width="1" height="2" x="13" y="14" fill="#4C7CCA"/>
    <path fill="#B2BDC2" d="M1,17 L2,17 L2,19 L1,19 L1,17 Z M2,19 L3,19 L3,20 L2,20 L2,19 Z M2,11 L3,11 L3,12 L2,12 L2,11 Z M5,11 L6,11 L6,12 L5,12 L5,11 Z M8,11 L9,11 L9,12 L8,12 L8,11 Z M11,11 L12,11 L12,12 L11,12 L11,11 Z M14,11 L15,11 L15,12 L14,12 L14,11 Z M17,11 L18,11 L18,12 L17,12 L17,11 Z M16,19 L17,19 L17,20 L16,20 L16,19 Z M3,20 L4,20 L4,21 L3,21 L3,20 Z M15,20 L16,20 L16,21 L15,21 L15,20 Z M4,21 L5,21 L5,22 L4,22 L4,21 Z M14,21 L15,21 L15,22 L14,22 L14,21 Z M5,22 L7,22 L7,23 L5,23 L5,22 Z M12,22 L14,22 L14,23 L12,23 L12,22 Z M7,23 L12,23 L12,24 L7,24 L7,23 Z M17,17 L18,17 L18,19 L17,19 L17,17 Z"/>
  </g>
</svg>
