<?xml version="1.0" standalone="no"?>
<!DOCTYPE svg PUBLIC "-//W3C//DTD SVG 20010904//EN"
 "http://www.w3.org/TR/2001/REC-SVG-20010904/DTD/svg10.dtd">
<svg version="1.0" xmlns="http://www.w3.org/2000/svg"
 width="500.000000pt" height="500.000000pt" viewBox="0 0 500.000000 500.000000"
 preserveAspectRatio="xMidYMid meet">
<metadata>
Created by potrace 1.11, written by Peter Selinger 2001-2013
</metadata>
<g transform="translate(0.000000,500.000000) scale(0.100000,-0.100000)"
fill="#000000" stroke="none">
<path d="M2080 4968 c1 -18 2 -65 1 -104 l-1 -71 -177 -1 c-98 0 -192 -1 -208
-1 l-31 -1 1 -92 c1 -51 0 -98 -2 -103 -2 -7 -43 -10 -103 -9 -85 1 -100 -2
-101 -15 0 -9 -1 -55 -2 -103 -1 -72 -4 -88 -16 -89 -9 -1 -55 -1 -103 -1
l-88 1 0 -105 0 -104 -105 0 -105 0 0 -210 0 -210 -105 0 -105 0 -2 -207 -3
-208 -85 -1 c-47 -1 -92 -2 -100 -3 -13 -1 -16 -17 -15 -93 1 -51 0 -98 -2
-103 -2 -6 -41 -10 -96 -9 -50 0 -96 -1 -102 -3 -8 -2 -13 -353 -6 -405 1 -4
47 -9 103 -10 l103 -3 0 -100 0 -100 208 -3 207 -2 1 -28 c0 -15 1 -62 2 -104
l2 -78 -106 0 -106 0 1 -205 c1 -130 -3 -205 -9 -206 -5 -1 -46 -3 -90 -4 -44
-1 -87 -3 -95 -4 -13 -1 -15 -55 -16 -416 l-1 -415 103 0 104 0 0 -105 0 -105
105 0 105 0 0 -104 0 -103 105 1 105 1 0 -105 0 -106 104 1 104 1 -2 -103 -2
-103 31 -1 c16 0 110 -1 208 -2 l177 0 1 -31 c1 -17 0 -64 -1 -104 l-1 -72
523 2 523 3 3 101 3 101 187 1 c103 0 196 1 208 1 19 1 20 6 19 89 -1 48 0 94
2 102 4 13 22 15 99 15 53 -1 98 3 101 8 3 6 6 52 6 104 l0 93 36 1 c20 0 66
1 104 1 l67 1 0 103 0 104 105 0 105 0 0 105 0 105 105 0 106 0 -3 415 c-2
265 -7 416 -13 418 -5 2 -52 3 -102 3 -56 -1 -93 3 -94 9 0 5 0 99 0 208 l0
197 -105 0 -104 0 0 105 0 105 210 0 210 0 0 105 0 105 103 0 103 0 -1 208 0
207 -100 0 -100 0 -3 103 c-3 117 -19 103 123 106 l80 1 0 97 c0 53 3 99 6
103 4 3 50 6 102 7 63 0 97 4 99 12 2 6 3 53 2 104 l-1 92 104 0 103 0 0 209
0 210 -102 -2 -103 -2 -1 90 c-1 50 -2 97 -3 105 -1 12 -19 15 -103 15 l-103
0 -1 100 c-1 55 -2 102 -3 105 -1 7 -398 6 -405 -1 -3 -3 -6 -50 -7 -105 l-1
-99 -206 0 -207 0 -2 40 c-1 22 -2 69 -2 105 l-1 65 -205 -1 c-140 -1 -205 3
-208 10 -2 6 -3 100 -2 209 l0 197 -523 0 -524 0 2 -32z"/>
</g>
</svg>
